<svg width="1576.0" height="1034.0" xmlns="http://www.w3.org/2000/svg"><g transform="translate(788.0, 517.0) scale(5.17)" stroke-width="0.8" font-size="8" font-family="roboto"><circle cx="48.742737" cy="-62.427467" r="1.8" fill="rgb(0.0, 0.0, 0.0)"/><text x="51.742737" y="-59.427467" fill="rgb(0.0, 0.0, 0.0)">A</text><circle cx="60.0" cy="40.0" r="1.8" fill="rgb(0.0, 0.0, 0.0)"/><text x="63.0" y="43.0" fill="rgb(0.0, 0.0, 0.0)">B</text><circle cx="-60.0" cy="40.0" r="1.8" fill="rgb(0.0, 0.0, 0.0)"/><text x="-57.0" y="43.0" fill="rgb(0.0, 0.0, 0.0)">C</text><polygon points="48.742737 -62.427467, 60.0 40.0, -60.0 40.0" fill="rgb(178.0, 102.0, 0.0)" fill-opacity="0.3" stroke="rgb(178.0, 102.0, 0.0)"/><circle cx="23.171206" cy="6.9970956" r="33.00288" fill="transparent" stroke="rgb(128.0, 128.0, 128.0)"/><circle cx="55.97654" cy="3.391634" r="1.8" fill="rgb(0.0, 0.0, 0.0)"/><text x="58.97654" y="6.391634" fill="rgb(0.0, 0.0, 0.0)">D</text><circle cx="0.5426655" cy="-17.026632" r="1.8" fill="rgb(0.0, 0.0, 0.0)"/><text x="3.5426655" y="-14.026632" fill="rgb(0.0, 0.0, 0.0)">E</text><circle cx="43.675682" cy="-1.1392097" r="1.8" fill="rgb(0.0, 0.0, 0.0)"/><text x="46.675682" y="1.8607903" fill="rgb(0.0, 0.0, 0.0)">H</text><line x1="60.0" y1="40.0" x2="43.675682" y2="-1.1392097" fill="transparent" stroke="rgb(0.0, 0.0, 178.0)"/><line x1="-60.0" y1="40.0" x2="43.675682" y2="-1.1392097" fill="transparent" stroke="rgb(0.0, 0.0, 178.0)"/><path d="M -60.0 40.0
L -52.72072 33.143467
A 10 10 0 0 1 -50.705032 36.311695
Z" fill="rgb(0.0, 178.0, 0.0)" fill-opacity="0.3" stroke="rgb(0.0, 178.0, 0.0)"/><path d="M -60.0 40.0
L -50.0 40.0
A 10 10 0 0 0 -50.705032 36.311695
Z" fill="rgb(0.0, 178.0, 0.0)" fill-opacity="0.3" stroke="rgb(0.0, 178.0, 0.0)"/><polygon points="43.675682 -1.1392097, 34.380714 2.5490956, 38.06902 11.844063, 47.363987 8.155757" fill="rgb(148.0, 0.0, 211.0)" fill-opacity="0.3" stroke="rgb(148.0, 0.0, 211.0)"/><line x1="55.97654" y1="3.391634" x2="0.5426655" y2="-17.026632" fill="transparent" stroke="rgb(178.0, 0.0, 0.0)" stroke-dasharray="5.0,5.0"/></g></svg>