<svg width="1576.0" height="1034.0" xmlns="http://www.w3.org/2000/svg"><g transform="translate(788.0, 517.0) scale(5.17)" stroke-width="0.8" font-size="8" font-family="roboto"><circle cx="0.0" cy="-0.0" r="60.0" fill="rgb(0.0, 0.0, 0.0)" fill-opacity="0.3" stroke="rgb(0.0, 0.0, 0.0)"/><circle cx="-55.625538" cy="-22.489979" r="1.8" fill="rgb(0.0, 0.0, 0.0)"/><text x="-52.625538" y="-19.489979" fill="rgb(0.0, 0.0, 0.0)">A</text><circle cx="56.96441" cy="-18.842928" r="1.8" fill="rgb(0.0, 0.0, 0.0)"/><text x="59.96441" y="-15.842928" fill="rgb(0.0, 0.0, 0.0)">B</text><line x1="-55.625538" y1="-22.489979" x2="56.96441" y2="-18.842928" fill="transparent" stroke="rgb(148.0, 0.0, 211.0)"/><circle cx="0.6694355" cy="-20.666454" r="1.8" fill="rgb(0.0, 0.0, 0.0)"/><text x="3.6694355" y="-17.666454" fill="rgb(0.0, 0.0, 0.0)">M</text><circle cx="-14.552142" cy="-58.20855" r="1.8" fill="rgb(0.0, 0.0, 0.0)"/><text x="-11.552142" y="-55.20855" fill="rgb(0.0, 0.0, 0.0)">P</text><circle cx="30.094534" cy="51.90683" r="1.8" fill="rgb(0.0, 0.0, 0.0)"/><text x="33.094536" y="54.90683" fill="rgb(0.0, 0.0, 0.0)">Q</text><circle cx="38.267033" cy="-46.212917" r="1.8" fill="rgb(0.0, 0.0, 0.0)"/><text x="41.267033" y="-43.212917" fill="rgb(0.0, 0.0, 0.0)">R</text><circle cx="-57.057983" cy="18.557632" r="1.8" fill="rgb(0.0, 0.0, 0.0)"/><text x="-54.057983" y="21.557632" fill="rgb(0.0, 0.0, 0.0)">S</text><polygon points="-14.552142 -58.20855, 30.094534 51.90683, 38.267033 -46.212917, -57.057983 18.557632" fill="rgb(178.0, 102.0, 0.0)" fill-opacity="0.3" stroke="rgb(178.0, 102.0, 0.0)"/><circle cx="-34.704933" cy="-21.812313" r="1.8" fill="rgb(0.0, 0.0, 0.0)"/><text x="-31.704933" y="-18.812313" fill="rgb(0.0, 0.0, 0.0)">X</text><circle cx="36.0438" cy="-19.520594" r="1.8" fill="rgb(0.0, 0.0, 0.0)"/><text x="39.0438" y="-16.520594" fill="rgb(0.0, 0.0, 0.0)">Y</text><line x1="-34.704933" y1="-21.812313" x2="36.0438" y2="-19.520594" fill="transparent" stroke="rgb(0.0, 178.0, 0.0)"/></g></svg>