<svg width="1576.0" height="1034.0" xmlns="http://www.w3.org/2000/svg"><g transform="translate(788.0, 517.0) scale(5.17)" stroke-width="0.8" font-size="8" font-family="roboto"><circle cx="94.3691" cy="-35.439762" r="1.8" fill="rgb(0.0, 0.0, 0.0)"/><text x="97.3691" y="-32.439762" fill="rgb(0.0, 0.0, 0.0)">A</text><circle cx="136.51373" cy="81.40974" r="1.8" fill="rgb(0.0, 0.0, 0.0)"/><text x="139.51373" y="84.40974" fill="rgb(0.0, 0.0, 0.0)">B</text><circle cx="-0.82204634" cy="83.36558" r="1.8" fill="rgb(0.0, 0.0, 0.0)"/><text x="2.1779537" y="86.36558" fill="rgb(0.0, 0.0, 0.0)">C</text><circle cx="39.42423" cy="-7.57771" r="1.8" fill="rgb(0.0, 0.0, 0.0)"/><text x="42.42423" y="-4.57771" fill="rgb(0.0, 0.0, 0.0)">D</text><line x1="480.0887" y1="1034.0" x2="-265.78607" y2="-1034.0" fill="transparent" stroke="rgb(178.0, 102.0, 0.0)"/><line x1="-1576.0001" y1="105.798164" x2="1576.0001" y2="60.90957" fill="transparent" stroke="rgb(178.0, 102.0, 0.0)"/><line x1="-421.51825" y1="1034.0" x2="493.6598" y2="-1034.0" fill="transparent" stroke="rgb(178.0, 102.0, 0.0)"/><line x1="-1576.0001" y1="811.5894" x2="1576.0001" y2="-786.76154" fill="transparent" stroke="rgb(178.0, 102.0, 0.0)"/><circle cx="75.23348" cy="-88.49482" r="1.8" fill="rgb(0.0, 0.0, 0.0)"/><text x="78.23348" y="-85.49482" fill="rgb(0.0, 0.0, 0.0)">E</text><circle cx="-143.9382" cy="85.403725" r="1.8" fill="rgb(0.0, 0.0, 0.0)"/><text x="-140.9382" y="88.403725" fill="rgb(0.0, 0.0, 0.0)">F</text><circle cx="46.77353" cy="23.962908" r="1.8" fill="rgb(0.0, 0.0, 0.0)"/><text x="49.77353" y="26.962908" fill="rgb(0.0, 0.0, 0.0)">X</text><line x1="94.3691" y1="-35.439762" x2="46.77353" y2="23.962908" fill="transparent" stroke="rgb(178.0, 0.0, 0.0)"/><line x1="68.230125" y1="-7.614277" x2="72.91251" y2="-3.8625777" fill="transparent" stroke="rgb(178.0, 0.0, 0.0)"/><line x1="46.77353" y1="23.962908" x2="-0.82204634" y2="83.36558" fill="transparent" stroke="rgb(178.0, 0.0, 0.0)"/><line x1="20.634546" y1="51.78839" x2="25.316935" y2="55.540092" fill="transparent" stroke="rgb(178.0, 0.0, 0.0)"/><circle cx="87.96898" cy="36.91601" r="1.8" fill="rgb(0.0, 0.0, 0.0)"/><text x="90.96898" y="39.91601" fill="rgb(0.0, 0.0, 0.0)">Y</text><line x1="136.51373" y1="81.40974" x2="87.96898" y2="36.91601" fill="transparent" stroke="rgb(0.0, 178.0, 0.0)"/><line x1="115.005585" y1="57.62696" x2="110.95152" y2="62.05014" fill="transparent" stroke="rgb(0.0, 178.0, 0.0)"/><line x1="113.53119" y1="56.275604" x2="109.47713" y2="60.698784" fill="transparent" stroke="rgb(0.0, 178.0, 0.0)"/><line x1="87.96898" y1="36.91601" x2="39.42423" y2="-7.57771" fill="transparent" stroke="rgb(0.0, 178.0, 0.0)"/><line x1="66.46083" y1="13.13324" x2="62.406765" y2="17.55642" fill="transparent" stroke="rgb(0.0, 178.0, 0.0)"/><line x1="64.986435" y1="11.781883" x2="60.93237" y2="16.205063" fill="transparent" stroke="rgb(0.0, 178.0, 0.0)"/><circle cx="-34.35236" cy="-1.5455475" r="1.8" fill="rgb(0.0, 0.0, 0.0)"/><text x="-31.35236" y="1.4544525" fill="rgb(0.0, 0.0, 0.0)">Z</text><line x1="75.23348" y1="-88.49482" x2="-34.35236" y2="-1.5455475" fill="transparent" stroke="rgb(0.0, 0.0, 178.0)"/><line x1="20.142641" y1="-48.613403" x2="23.871965" y2="-43.913177" fill="transparent" stroke="rgb(0.0, 0.0, 178.0)"/><line x1="18.5759" y1="-47.370296" x2="22.305223" y2="-42.67007" fill="transparent" stroke="rgb(0.0, 0.0, 178.0)"/><line x1="17.009157" y1="-46.12719" x2="20.738482" y2="-41.426964" fill="transparent" stroke="rgb(0.0, 0.0, 178.0)"/><line x1="-34.35236" y1="-1.5455475" x2="-143.9382" y2="85.403725" fill="transparent" stroke="rgb(0.0, 0.0, 178.0)"/><line x1="-89.4432" y1="38.33587" x2="-85.713875" y2="43.036095" fill="transparent" stroke="rgb(0.0, 0.0, 178.0)"/><line x1="-91.00994" y1="39.578976" x2="-87.28062" y2="44.2792" fill="transparent" stroke="rgb(0.0, 0.0, 178.0)"/><line x1="-92.57668" y1="40.822083" x2="-88.84736" y2="45.52231" fill="transparent" stroke="rgb(0.0, 0.0, 178.0)"/><line x1="-1576.0" y1="-486.2865" x2="1576.0" y2="504.7983" fill="transparent" stroke="rgb(148.0, 0.0, 211.0)" stroke-dasharray="5.0,5.0"/></g></svg>