<svg width="1576.0" height="1034.0" xmlns="http://www.w3.org/2000/svg"><g transform="translate(788.0, 517.0) scale(5.17)" stroke-width="0.8" font-size="8" font-family="roboto"><circle cx="-85.92846" cy="-89.16829" r="1.8" fill="rgb(0.0, 0.0, 0.0)"/><text x="-82.92846" y="-86.16829" fill="rgb(0.0, 0.0, 0.0)">A</text><circle cx="29.760408" cy="1.3941998" r="1.8" fill="rgb(0.0, 0.0, 0.0)"/><text x="32.760406" y="4.3942" fill="rgb(0.0, 0.0, 0.0)">B</text><circle cx="-78.578316" cy="24.564795" r="1.8" fill="rgb(0.0, 0.0, 0.0)"/><text x="-75.578316" y="27.564795" fill="rgb(0.0, 0.0, 0.0)">C</text><line x1="1348.8605" y1="1034.0" x2="-1292.9017" y2="-1034.0" fill="transparent" stroke="rgb(128.0, 128.0, 128.0)"/><line x1="-13.342295" y1="1033.9999" x2="-146.98938" y2="-1033.9999" fill="transparent" stroke="rgb(128.0, 128.0, 128.0)"/><polygon points="-85.92846 -89.16829, 29.760408 1.3941998, -78.578316 24.564795" fill="rgb(178.0, 102.0, 0.0)" fill-opacity="0.3" stroke="rgb(178.0, 102.0, 0.0)"/><line x1="506.79544" y1="1034.0" x2="-584.53973" y2="-1034.0" fill="transparent" stroke="rgb(0.0, 0.0, 0.0)"/><circle cx="-34.749916" cy="-35.37171" r="74.2517" fill="transparent" stroke="rgb(178.0, 0.0, 0.0)"/><circle cx="-19.220749" cy="37.23792" r="1.8" fill="rgb(0.0, 0.0, 0.0)"/><text x="-16.220749" y="40.23792" fill="rgb(0.0, 0.0, 0.0)">M</text><circle cx="-47.548615" cy="-16.441309" r="1.8" fill="rgb(0.0, 0.0, 0.0)"/><text x="-44.548615" y="-13.441309" fill="rgb(0.0, 0.0, 0.0)">I</text><circle cx="-47.548615" cy="-16.441309" r="33.609653" fill="transparent" stroke="rgb(128.0, 128.0, 128.0)"/><circle cx="9.107102" cy="90.917145" r="1.8" fill="rgb(0.0, 0.0, 0.0)"/><text x="12.107102" y="93.917145" fill="rgb(0.0, 0.0, 0.0)">I<tspan baseline-shift="sub">A</tspan></text><circle cx="9.107102" cy="90.917145" r="83.223694" fill="transparent" stroke="rgb(128.0, 128.0, 128.0)"/><circle cx="-19.220749" cy="37.23792" r="60.69537" fill="transparent" stroke="rgb(0.0, 0.0, 178.0)"/><line x1="-19.220749" y1="37.23792" x2="-47.548615" y2="-16.441309" fill="transparent" stroke="rgb(148.0, 0.0, 211.0)"/><line x1="-30.73147" y1="8.998138" x2="-36.037895" y2="11.798471" fill="transparent" stroke="rgb(148.0, 0.0, 211.0)"/><line x1="-19.220749" y1="37.23792" x2="29.760408" y2="1.3941998" fill="transparent" stroke="rgb(148.0, 0.0, 211.0)"/><line x1="7.041484" y1="21.737059" x2="3.4981759" y2="16.89506" fill="transparent" stroke="rgb(148.0, 0.0, 211.0)"/><line x1="-19.220749" y1="37.23792" x2="9.107102" y2="90.917145" fill="transparent" stroke="rgb(148.0, 0.0, 211.0)"/><line x1="-7.710036" y1="65.4777" x2="-2.4036107" y2="62.677364" fill="transparent" stroke="rgb(148.0, 0.0, 211.0)"/><line x1="-19.220749" y1="37.23792" x2="-78.578316" y2="24.564795" fill="transparent" stroke="rgb(148.0, 0.0, 211.0)"/><line x1="-48.273136" y1="27.96748" x2="-49.52593" y2="33.83523" fill="transparent" stroke="rgb(148.0, 0.0, 211.0)"/></g></svg>